<mxfile host="app.diagrams.net" agent="Mozilla/5.0 (Windows NT 10.0; Win64; x64) AppleWebKit/537.36 (KHTML, like Gecko) Chrome/127.0.0.0 Safari/537.36" version="24.7.6">
  <diagram name="Page-1" id="YXPLylSa4uEAgtTG0Q7R">
    <mxGraphModel dx="1035" dy="511" grid="1" gridSize="10" guides="1" tooltips="1" connect="1" arrows="1" fold="1" page="1" pageScale="1" pageWidth="827" pageHeight="1169" math="0" shadow="0">
      <root>
        <mxCell id="0" />
        <mxCell id="1" parent="0" />
        <mxCell id="5NbOVXX6M8sHhtHBRRVc-1" value="" style="rounded=0;whiteSpace=wrap;html=1;" vertex="1" parent="1">
          <mxGeometry x="80" y="80" width="720" height="280" as="geometry" />
        </mxCell>
        <mxCell id="5NbOVXX6M8sHhtHBRRVc-2" value="Host" style="text;html=1;align=center;verticalAlign=middle;whiteSpace=wrap;rounded=0;" vertex="1" parent="1">
          <mxGeometry x="80" y="80" width="720" height="30" as="geometry" />
        </mxCell>
        <mxCell id="5NbOVXX6M8sHhtHBRRVc-3" value="" style="rounded=0;whiteSpace=wrap;html=1;" vertex="1" parent="1">
          <mxGeometry x="120" y="120" width="640" height="200" as="geometry" />
        </mxCell>
        <mxCell id="5NbOVXX6M8sHhtHBRRVc-4" value="websockets-centos VM" style="text;html=1;align=center;verticalAlign=middle;whiteSpace=wrap;rounded=0;" vertex="1" parent="1">
          <mxGeometry x="120" y="120" width="640" height="30" as="geometry" />
        </mxCell>
        <mxCell id="5NbOVXX6M8sHhtHBRRVc-13" style="edgeStyle=orthogonalEdgeStyle;rounded=0;orthogonalLoop=1;jettySize=auto;html=1;startArrow=classic;startFill=1;" edge="1" parent="1" source="5NbOVXX6M8sHhtHBRRVc-5" target="5NbOVXX6M8sHhtHBRRVc-8">
          <mxGeometry relative="1" as="geometry">
            <Array as="points">
              <mxPoint x="210" y="250" />
              <mxPoint x="330" y="250" />
            </Array>
          </mxGeometry>
        </mxCell>
        <mxCell id="5NbOVXX6M8sHhtHBRRVc-5" value="http-web-app" style="rounded=1;whiteSpace=wrap;html=1;" vertex="1" parent="1">
          <mxGeometry x="150" y="160" width="120" height="60" as="geometry" />
        </mxCell>
        <mxCell id="5NbOVXX6M8sHhtHBRRVc-14" style="edgeStyle=orthogonalEdgeStyle;rounded=0;orthogonalLoop=1;jettySize=auto;html=1;entryX=0.5;entryY=0;entryDx=0;entryDy=0;startArrow=classic;startFill=1;" edge="1" parent="1" source="5NbOVXX6M8sHhtHBRRVc-6" target="5NbOVXX6M8sHhtHBRRVc-12">
          <mxGeometry relative="1" as="geometry" />
        </mxCell>
        <mxCell id="5NbOVXX6M8sHhtHBRRVc-6" value="https-web-app" style="rounded=1;whiteSpace=wrap;html=1;" vertex="1" parent="1">
          <mxGeometry x="300" y="160" width="120" height="60" as="geometry" />
        </mxCell>
        <mxCell id="5NbOVXX6M8sHhtHBRRVc-15" style="edgeStyle=orthogonalEdgeStyle;rounded=0;orthogonalLoop=1;jettySize=auto;html=1;startArrow=classic;startFill=1;" edge="1" parent="1" source="5NbOVXX6M8sHhtHBRRVc-7" target="5NbOVXX6M8sHhtHBRRVc-8">
          <mxGeometry relative="1" as="geometry">
            <Array as="points">
              <mxPoint x="510" y="250" />
              <mxPoint x="400" y="250" />
            </Array>
          </mxGeometry>
        </mxCell>
        <mxCell id="5NbOVXX6M8sHhtHBRRVc-7" value="websockets-web-app" style="rounded=1;whiteSpace=wrap;html=1;" vertex="1" parent="1">
          <mxGeometry x="450" y="160" width="120" height="60" as="geometry" />
        </mxCell>
        <mxCell id="5NbOVXX6M8sHhtHBRRVc-8" value="" style="shape=trapezoid;perimeter=trapezoidPerimeter;whiteSpace=wrap;html=1;fixedSize=1;rotation=-180;" vertex="1" parent="1">
          <mxGeometry x="300" y="300" width="120" height="95" as="geometry" />
        </mxCell>
        <mxCell id="5NbOVXX6M8sHhtHBRRVc-9" value="physical NIC" style="text;html=1;align=center;verticalAlign=middle;whiteSpace=wrap;rounded=0;" vertex="1" parent="1">
          <mxGeometry x="320" y="365" width="80" height="30" as="geometry" />
        </mxCell>
        <mxCell id="5NbOVXX6M8sHhtHBRRVc-11" value="" style="endArrow=none;dashed=1;html=1;dashPattern=1 3;strokeWidth=2;rounded=0;exitX=1;exitY=0.5;exitDx=0;exitDy=0;entryX=0;entryY=0.5;entryDx=0;entryDy=0;" edge="1" parent="1" source="5NbOVXX6M8sHhtHBRRVc-8" target="5NbOVXX6M8sHhtHBRRVc-8">
          <mxGeometry width="50" height="50" relative="1" as="geometry">
            <mxPoint x="310" y="330" as="sourcePoint" />
            <mxPoint x="360" y="280" as="targetPoint" />
          </mxGeometry>
        </mxCell>
        <mxCell id="5NbOVXX6M8sHhtHBRRVc-12" value="virtual Nic" style="text;html=1;align=center;verticalAlign=middle;whiteSpace=wrap;rounded=0;" vertex="1" parent="1">
          <mxGeometry x="320" y="300" width="80" height="30" as="geometry" />
        </mxCell>
        <mxCell id="5NbOVXX6M8sHhtHBRRVc-16" value="3000:3000" style="text;html=1;align=center;verticalAlign=middle;whiteSpace=wrap;rounded=0;" vertex="1" parent="1">
          <mxGeometry x="210" y="250" width="80" height="30" as="geometry" />
        </mxCell>
        <mxCell id="5NbOVXX6M8sHhtHBRRVc-17" value="4000:4000" style="text;html=1;align=center;verticalAlign=middle;whiteSpace=wrap;rounded=0;" vertex="1" parent="1">
          <mxGeometry x="430" y="250" width="80" height="30" as="geometry" />
        </mxCell>
        <mxCell id="5NbOVXX6M8sHhtHBRRVc-18" value="3001:3001" style="text;html=1;align=center;verticalAlign=middle;whiteSpace=wrap;rounded=0;" vertex="1" parent="1">
          <mxGeometry x="360" y="220" width="80" height="30" as="geometry" />
        </mxCell>
        <mxCell id="5NbOVXX6M8sHhtHBRRVc-19" value="" style="shape=umlActor;verticalLabelPosition=bottom;verticalAlign=top;html=1;outlineConnect=0;" vertex="1" parent="1">
          <mxGeometry x="80" y="440" width="40" height="80" as="geometry" />
        </mxCell>
        <mxCell id="5NbOVXX6M8sHhtHBRRVc-24" style="edgeStyle=orthogonalEdgeStyle;rounded=0;orthogonalLoop=1;jettySize=auto;html=1;startArrow=classic;startFill=1;" edge="1" parent="1" source="5NbOVXX6M8sHhtHBRRVc-22" target="5NbOVXX6M8sHhtHBRRVc-8">
          <mxGeometry relative="1" as="geometry" />
        </mxCell>
        <mxCell id="5NbOVXX6M8sHhtHBRRVc-22" value="" style="verticalLabelPosition=bottom;html=1;verticalAlign=top;align=center;shape=mxgraph.azure.laptop;pointerEvents=1;" vertex="1" parent="1">
          <mxGeometry x="130" y="455" width="80" height="50" as="geometry" />
        </mxCell>
        <mxCell id="5NbOVXX6M8sHhtHBRRVc-25" value="https://localhost:4001" style="text;html=1;align=center;verticalAlign=middle;whiteSpace=wrap;rounded=0;" vertex="1" parent="1">
          <mxGeometry x="200" y="450" width="160" height="30" as="geometry" />
        </mxCell>
        <mxCell id="5NbOVXX6M8sHhtHBRRVc-29" style="edgeStyle=orthogonalEdgeStyle;rounded=0;orthogonalLoop=1;jettySize=auto;html=1;" edge="1" parent="1" source="5NbOVXX6M8sHhtHBRRVc-26" target="5NbOVXX6M8sHhtHBRRVc-8">
          <mxGeometry relative="1" as="geometry">
            <Array as="points">
              <mxPoint x="660" y="280" />
              <mxPoint x="360" y="280" />
            </Array>
          </mxGeometry>
        </mxCell>
        <mxCell id="5NbOVXX6M8sHhtHBRRVc-26" value="wss-web-app" style="rounded=1;whiteSpace=wrap;html=1;" vertex="1" parent="1">
          <mxGeometry x="600" y="160" width="120" height="60" as="geometry" />
        </mxCell>
        <mxCell id="5NbOVXX6M8sHhtHBRRVc-28" value="4001:4001" style="text;html=1;align=center;verticalAlign=middle;whiteSpace=wrap;rounded=0;" vertex="1" parent="1">
          <mxGeometry x="580" y="250" width="80" height="30" as="geometry" />
        </mxCell>
      </root>
    </mxGraphModel>
  </diagram>
</mxfile>
